<mxfile host="app.diagrams.net" modified="2022-04-30T18:23:51.404Z" agent="5.0 (Windows NT 10.0; Win64; x64) AppleWebKit/537.36 (KHTML, like Gecko) Chrome/100.0.4896.127 Safari/537.36" etag="sHK1Lf-IKpa9_oxmnooY" version="17.5.0" type="github">
  <diagram id="-9xeSF7cooMqTowmtu8q" name="Page-1">
    <mxGraphModel dx="1157" dy="1857" grid="1" gridSize="10" guides="1" tooltips="1" connect="1" arrows="1" fold="1" page="1" pageScale="1" pageWidth="827" pageHeight="1169" background="#DAD2D8" math="0" shadow="0">
      <root>
        <mxCell id="0" />
        <mxCell id="1" parent="0" />
        <mxCell id="YYU7tbsLJd_8XvhxsSBn-59" value="&lt;br&gt;&lt;br&gt;&lt;br&gt;&lt;br&gt;Databases" style="whiteSpace=wrap;html=1;aspect=fixed;fillColor=#FAE5C7;strokeColor=#0F8B8D;fontColor=#143642;" vertex="1" parent="1">
          <mxGeometry x="780" y="175" width="100" height="100" as="geometry" />
        </mxCell>
        <mxCell id="YYU7tbsLJd_8XvhxsSBn-48" style="edgeStyle=orthogonalEdgeStyle;curved=0;rounded=1;sketch=0;orthogonalLoop=1;jettySize=auto;html=1;exitX=1;exitY=0.5;exitDx=0;exitDy=0;entryX=0;entryY=0.5;entryDx=0;entryDy=0;fontFamily=Helvetica;fontColor=#143642;strokeColor=#A8201A;fillColor=#FAE5C7;" edge="1" parent="1" source="YYU7tbsLJd_8XvhxsSBn-16" target="YYU7tbsLJd_8XvhxsSBn-59">
          <mxGeometry relative="1" as="geometry" />
        </mxCell>
        <mxCell id="YYU7tbsLJd_8XvhxsSBn-61" style="edgeStyle=orthogonalEdgeStyle;curved=0;rounded=1;sketch=0;orthogonalLoop=1;jettySize=auto;html=1;exitX=1;exitY=0.5;exitDx=0;exitDy=0;entryX=0;entryY=0.5;entryDx=0;entryDy=0;fontFamily=Helvetica;fontColor=#143642;strokeColor=#A8201A;fillColor=#FAE5C7;" edge="1" parent="1" source="YYU7tbsLJd_8XvhxsSBn-16" target="YYU7tbsLJd_8XvhxsSBn-60">
          <mxGeometry relative="1" as="geometry" />
        </mxCell>
        <mxCell id="YYU7tbsLJd_8XvhxsSBn-16" value="" style="whiteSpace=wrap;html=1;aspect=fixed;fillColor=#FAE5C7;strokeColor=#0F8B8D;fontColor=#143642;" vertex="1" parent="1">
          <mxGeometry x="580" y="160" width="130" height="130" as="geometry" />
        </mxCell>
        <mxCell id="YYU7tbsLJd_8XvhxsSBn-15" value="" style="whiteSpace=wrap;html=1;aspect=fixed;fillColor=#FAE5C7;strokeColor=#0F8B8D;fontColor=#143642;" vertex="1" parent="1">
          <mxGeometry x="570" y="150" width="130" height="130" as="geometry" />
        </mxCell>
        <mxCell id="YYU7tbsLJd_8XvhxsSBn-7" style="edgeStyle=orthogonalEdgeStyle;curved=0;rounded=1;sketch=0;orthogonalLoop=1;jettySize=auto;html=1;entryX=-0.005;entryY=0.325;entryDx=0;entryDy=0;entryPerimeter=0;fontFamily=Helvetica;fontColor=#143642;strokeColor=#A8201A;fillColor=#FAE5C7;" edge="1" parent="1" source="YYU7tbsLJd_8XvhxsSBn-1" target="YYU7tbsLJd_8XvhxsSBn-4">
          <mxGeometry relative="1" as="geometry" />
        </mxCell>
        <mxCell id="YYU7tbsLJd_8XvhxsSBn-1" value="Iot" style="whiteSpace=wrap;html=1;aspect=fixed;fillColor=#FAE5C7;strokeColor=#0F8B8D;fontColor=#143642;" vertex="1" parent="1">
          <mxGeometry x="40" y="80" width="80" height="80" as="geometry" />
        </mxCell>
        <mxCell id="YYU7tbsLJd_8XvhxsSBn-8" style="edgeStyle=orthogonalEdgeStyle;curved=0;rounded=1;sketch=0;orthogonalLoop=1;jettySize=auto;html=1;exitX=1;exitY=0.5;exitDx=0;exitDy=0;entryX=0;entryY=0.5;entryDx=0;entryDy=0;fontFamily=Helvetica;fontColor=#143642;strokeColor=#A8201A;fillColor=#FAE5C7;" edge="1" parent="1" source="YYU7tbsLJd_8XvhxsSBn-2" target="YYU7tbsLJd_8XvhxsSBn-4">
          <mxGeometry relative="1" as="geometry" />
        </mxCell>
        <mxCell id="YYU7tbsLJd_8XvhxsSBn-2" value="Mobile" style="whiteSpace=wrap;html=1;aspect=fixed;fillColor=#FAE5C7;strokeColor=#0F8B8D;fontColor=#143642;" vertex="1" parent="1">
          <mxGeometry x="40" y="180" width="80" height="80" as="geometry" />
        </mxCell>
        <mxCell id="YYU7tbsLJd_8XvhxsSBn-9" style="edgeStyle=orthogonalEdgeStyle;curved=0;rounded=1;sketch=0;orthogonalLoop=1;jettySize=auto;html=1;exitX=1;exitY=0.5;exitDx=0;exitDy=0;entryX=0;entryY=0.75;entryDx=0;entryDy=0;fontFamily=Helvetica;fontColor=#143642;strokeColor=#A8201A;fillColor=#FAE5C7;" edge="1" parent="1" source="YYU7tbsLJd_8XvhxsSBn-3" target="YYU7tbsLJd_8XvhxsSBn-4">
          <mxGeometry relative="1" as="geometry" />
        </mxCell>
        <mxCell id="YYU7tbsLJd_8XvhxsSBn-3" value="Browser" style="whiteSpace=wrap;html=1;aspect=fixed;fillColor=#FAE5C7;strokeColor=#0F8B8D;fontColor=#143642;" vertex="1" parent="1">
          <mxGeometry x="40" y="290" width="80" height="80" as="geometry" />
        </mxCell>
        <mxCell id="YYU7tbsLJd_8XvhxsSBn-49" style="edgeStyle=orthogonalEdgeStyle;curved=0;rounded=1;sketch=0;orthogonalLoop=1;jettySize=auto;html=1;exitX=1;exitY=0.5;exitDx=0;exitDy=0;entryX=0;entryY=0.5;entryDx=0;entryDy=0;fontFamily=Helvetica;fontColor=#143642;strokeColor=#A8201A;fillColor=#FAE5C7;" edge="1" parent="1" source="YYU7tbsLJd_8XvhxsSBn-4" target="YYU7tbsLJd_8XvhxsSBn-39">
          <mxGeometry relative="1" as="geometry" />
        </mxCell>
        <mxCell id="YYU7tbsLJd_8XvhxsSBn-4" value="&lt;br&gt;&lt;br&gt;&lt;br&gt;API Gateway" style="whiteSpace=wrap;html=1;aspect=fixed;fillColor=#FAE5C7;strokeColor=#0F8B8D;fontColor=#143642;" vertex="1" parent="1">
          <mxGeometry x="220" y="180" width="80" height="80" as="geometry" />
        </mxCell>
        <mxCell id="YYU7tbsLJd_8XvhxsSBn-6" value="gateway-service" style="text;align=center;verticalAlign=middle;resizable=0;points=[];autosize=1;fontStyle=0;labelBackgroundColor=none;labelBorderColor=none;" vertex="1" parent="1">
          <mxGeometry x="200" y="160" width="120" height="20" as="geometry" />
        </mxCell>
        <mxCell id="YYU7tbsLJd_8XvhxsSBn-10" value="&lt;br&gt;&lt;br&gt;&lt;br&gt;Config Dashboard" style="whiteSpace=wrap;html=1;aspect=fixed;fillColor=#FAE5C7;strokeColor=#0F8B8D;fontColor=#143642;" vertex="1" parent="1">
          <mxGeometry x="215" y="67" width="80" height="80" as="geometry" />
        </mxCell>
        <mxCell id="YYU7tbsLJd_8XvhxsSBn-13" value="&lt;br&gt;&lt;br&gt;&lt;br&gt;Examen Magneto" style="whiteSpace=wrap;html=1;aspect=fixed;fillColor=#FAE5C7;strokeColor=#0F8B8D;fontColor=#143642;" vertex="1" parent="1">
          <mxGeometry x="585" y="167" width="105" height="105" as="geometry" />
        </mxCell>
        <mxCell id="YYU7tbsLJd_8XvhxsSBn-17" value="MicroServices" style="text;align=center;verticalAlign=middle;resizable=0;points=[];autosize=1;fontStyle=0;labelBackgroundColor=none;labelBorderColor=none;" vertex="1" parent="1">
          <mxGeometry x="600" y="147" width="90" height="20" as="geometry" />
        </mxCell>
        <mxCell id="YYU7tbsLJd_8XvhxsSBn-18" value="" style="shape=image;html=1;verticalAlign=top;verticalLabelPosition=bottom;labelBackgroundColor=#ffffff;imageAspect=0;aspect=fixed;image=https://cdn2.iconfinder.com/data/icons/boxicons-logos/24/bxl-spring-boot-128.png;rounded=0;labelBorderColor=none;sketch=0;fontFamily=Helvetica;fontColor=#143642;strokeColor=#000000;fillColor=#000000;" vertex="1" parent="1">
          <mxGeometry x="240" y="195" width="40" height="40" as="geometry" />
        </mxCell>
        <mxCell id="YYU7tbsLJd_8XvhxsSBn-19" value="" style="shape=image;html=1;verticalAlign=top;verticalLabelPosition=bottom;labelBackgroundColor=#ffffff;imageAspect=0;aspect=fixed;image=https://cdn2.iconfinder.com/data/icons/boxicons-logos/24/bxl-spring-boot-128.png;rounded=0;labelBorderColor=none;sketch=0;fontFamily=Helvetica;fontColor=#143642;strokeColor=#000000;fillColor=#000000;" vertex="1" parent="1">
          <mxGeometry x="235" y="74" width="40" height="40" as="geometry" />
        </mxCell>
        <mxCell id="YYU7tbsLJd_8XvhxsSBn-21" value="" style="shape=image;html=1;verticalAlign=top;verticalLabelPosition=bottom;labelBackgroundColor=#ffffff;imageAspect=0;aspect=fixed;image=https://cdn2.iconfinder.com/data/icons/boxicons-logos/24/bxl-spring-boot-128.png;rounded=0;labelBorderColor=none;sketch=0;fontFamily=Helvetica;fontColor=#143642;strokeColor=#000000;fillColor=#000000;" vertex="1" parent="1">
          <mxGeometry x="590" y="180" width="30" height="30" as="geometry" />
        </mxCell>
        <mxCell id="YYU7tbsLJd_8XvhxsSBn-22" value="" style="aspect=fixed;html=1;points=[];align=center;image;fontSize=12;image=img/lib/azure2/compute/Azure_Spring_Cloud.svg;rounded=0;labelBackgroundColor=none;labelBorderColor=none;sketch=0;fontFamily=Helvetica;fontColor=#143642;strokeColor=#000000;fillColor=#000000;" vertex="1" parent="1">
          <mxGeometry x="640" y="180" width="31.88" height="30" as="geometry" />
        </mxCell>
        <mxCell id="YYU7tbsLJd_8XvhxsSBn-23" value="config-service" style="text;align=center;verticalAlign=middle;resizable=0;points=[];autosize=1;fontStyle=0;labelBackgroundColor=none;labelBorderColor=none;" vertex="1" parent="1">
          <mxGeometry x="210" y="47" width="90" height="20" as="geometry" />
        </mxCell>
        <mxCell id="YYU7tbsLJd_8XvhxsSBn-24" value="&lt;br&gt;&lt;br&gt;&lt;br&gt;Service Registry" style="whiteSpace=wrap;html=1;aspect=fixed;fillColor=#FAE5C7;strokeColor=#0F8B8D;fontColor=#143642;" vertex="1" parent="1">
          <mxGeometry x="215" y="-93" width="80" height="80" as="geometry" />
        </mxCell>
        <mxCell id="YYU7tbsLJd_8XvhxsSBn-25" value="" style="shape=image;html=1;verticalAlign=top;verticalLabelPosition=bottom;labelBackgroundColor=#ffffff;imageAspect=0;aspect=fixed;image=https://cdn2.iconfinder.com/data/icons/boxicons-logos/24/bxl-spring-boot-128.png;rounded=0;labelBorderColor=none;sketch=0;fontFamily=Helvetica;fontColor=#143642;strokeColor=#000000;fillColor=#000000;" vertex="1" parent="1">
          <mxGeometry x="235" y="-86" width="40" height="40" as="geometry" />
        </mxCell>
        <mxCell id="YYU7tbsLJd_8XvhxsSBn-34" style="edgeStyle=orthogonalEdgeStyle;curved=0;rounded=1;sketch=0;orthogonalLoop=1;jettySize=auto;html=1;entryX=0;entryY=0.5;entryDx=0;entryDy=0;fontFamily=Helvetica;fontColor=#143642;strokeColor=#A8201A;fillColor=#FAE5C7;" edge="1" parent="1" source="YYU7tbsLJd_8XvhxsSBn-28" target="YYU7tbsLJd_8XvhxsSBn-30">
          <mxGeometry relative="1" as="geometry" />
        </mxCell>
        <mxCell id="YYU7tbsLJd_8XvhxsSBn-38" style="edgeStyle=orthogonalEdgeStyle;curved=0;rounded=1;sketch=0;orthogonalLoop=1;jettySize=auto;html=1;exitX=1;exitY=0.5;exitDx=0;exitDy=0;fontFamily=Helvetica;fontColor=#143642;strokeColor=#A8201A;fillColor=#FAE5C7;" edge="1" parent="1" source="YYU7tbsLJd_8XvhxsSBn-28" target="YYU7tbsLJd_8XvhxsSBn-37">
          <mxGeometry relative="1" as="geometry" />
        </mxCell>
        <mxCell id="YYU7tbsLJd_8XvhxsSBn-58" style="edgeStyle=orthogonalEdgeStyle;curved=0;rounded=1;sketch=0;orthogonalLoop=1;jettySize=auto;html=1;exitX=0.5;exitY=1;exitDx=0;exitDy=0;fontFamily=Helvetica;fontColor=#143642;strokeColor=#A8201A;fillColor=#FAE5C7;" edge="1" parent="1" source="YYU7tbsLJd_8XvhxsSBn-28" target="YYU7tbsLJd_8XvhxsSBn-39">
          <mxGeometry relative="1" as="geometry" />
        </mxCell>
        <mxCell id="YYU7tbsLJd_8XvhxsSBn-28" value="&lt;br&gt;&lt;br&gt;&lt;br&gt;Spring Config Server" style="whiteSpace=wrap;html=1;aspect=fixed;fillColor=#FAE5C7;strokeColor=#0F8B8D;fontColor=#143642;" vertex="1" parent="1">
          <mxGeometry x="390" y="-29.999999999999996" width="80" height="80" as="geometry" />
        </mxCell>
        <mxCell id="YYU7tbsLJd_8XvhxsSBn-29" value="" style="shape=image;html=1;verticalAlign=top;verticalLabelPosition=bottom;labelBackgroundColor=#ffffff;imageAspect=0;aspect=fixed;image=https://cdn2.iconfinder.com/data/icons/boxicons-logos/24/bxl-spring-boot-128.png;rounded=0;labelBorderColor=none;sketch=0;fontFamily=Helvetica;fontColor=#143642;strokeColor=#000000;fillColor=#000000;" vertex="1" parent="1">
          <mxGeometry x="413.5" y="-23" width="33" height="33" as="geometry" />
        </mxCell>
        <mxCell id="YYU7tbsLJd_8XvhxsSBn-30" value="" style="shape=image;html=1;verticalAlign=top;verticalLabelPosition=bottom;labelBackgroundColor=#ffffff;imageAspect=0;aspect=fixed;image=https://cdn2.iconfinder.com/data/icons/font-awesome/1792/git-128.png;fontFamily=Helvetica;fontSize=12;fontColor=#143642;align=center;strokeColor=#0F8B8D;fillColor=#FAE5C7;" vertex="1" parent="1">
          <mxGeometry x="510" y="-83" width="60" height="60" as="geometry" />
        </mxCell>
        <mxCell id="YYU7tbsLJd_8XvhxsSBn-37" value="" style="sketch=0;html=1;aspect=fixed;strokeColor=none;shadow=0;align=center;verticalAlign=top;fillColor=#3B8DF1;shape=mxgraph.gcp2.files;rounded=0;labelBackgroundColor=none;labelBorderColor=none;fontFamily=Helvetica;fontColor=#143642;" vertex="1" parent="1">
          <mxGeometry x="510" y="30.000000000000014" width="60" height="58.2" as="geometry" />
        </mxCell>
        <mxCell id="YYU7tbsLJd_8XvhxsSBn-52" style="edgeStyle=orthogonalEdgeStyle;curved=0;rounded=1;sketch=0;orthogonalLoop=1;jettySize=auto;html=1;exitX=1;exitY=0.5;exitDx=0;exitDy=0;entryX=0;entryY=0.5;entryDx=0;entryDy=0;fontFamily=Helvetica;fontColor=#143642;strokeColor=#A8201A;fillColor=#FAE5C7;" edge="1" parent="1" source="YYU7tbsLJd_8XvhxsSBn-39" target="YYU7tbsLJd_8XvhxsSBn-13">
          <mxGeometry relative="1" as="geometry" />
        </mxCell>
        <mxCell id="YYU7tbsLJd_8XvhxsSBn-39" value="&lt;br&gt;&lt;br&gt;&lt;br&gt;Spring Cloud Netflix Eureka" style="whiteSpace=wrap;html=1;aspect=fixed;fillColor=#FAE5C7;strokeColor=#0F8B8D;fontColor=#143642;" vertex="1" parent="1">
          <mxGeometry x="380" y="170" width="100" height="100" as="geometry" />
        </mxCell>
        <mxCell id="YYU7tbsLJd_8XvhxsSBn-51" style="edgeStyle=orthogonalEdgeStyle;curved=0;rounded=1;sketch=0;orthogonalLoop=1;jettySize=auto;html=1;exitX=1;exitY=0;exitDx=0;exitDy=0;entryX=0.5;entryY=1;entryDx=0;entryDy=0;fontFamily=Helvetica;fontColor=#143642;strokeColor=#A8201A;fillColor=#FAE5C7;" edge="1" parent="1" source="YYU7tbsLJd_8XvhxsSBn-40" target="YYU7tbsLJd_8XvhxsSBn-28">
          <mxGeometry relative="1" as="geometry" />
        </mxCell>
        <mxCell id="YYU7tbsLJd_8XvhxsSBn-40" value="" style="shape=image;html=1;verticalAlign=top;verticalLabelPosition=bottom;labelBackgroundColor=#ffffff;imageAspect=0;aspect=fixed;image=https://cdn2.iconfinder.com/data/icons/boxicons-logos/24/bxl-spring-boot-128.png;rounded=0;labelBorderColor=none;sketch=0;fontFamily=Helvetica;fontColor=#143642;strokeColor=#000000;fillColor=#000000;" vertex="1" parent="1">
          <mxGeometry x="390" y="177" width="40" height="40" as="geometry" />
        </mxCell>
        <mxCell id="YYU7tbsLJd_8XvhxsSBn-41" value="" style="shape=image;html=1;verticalAlign=top;verticalLabelPosition=bottom;labelBackgroundColor=#ffffff;imageAspect=0;aspect=fixed;image=https://cdn0.iconfinder.com/data/icons/social-media-entertainment-line/32/Netflix-128.png;rounded=0;labelBorderColor=none;sketch=0;fontFamily=Helvetica;fontColor=#143642;strokeColor=#000000;fillColor=#000000;" vertex="1" parent="1">
          <mxGeometry x="440" y="177" width="40" height="40" as="geometry" />
        </mxCell>
        <mxCell id="YYU7tbsLJd_8XvhxsSBn-44" value="&lt;br&gt;&lt;br&gt;&lt;br&gt;OAuth" style="whiteSpace=wrap;html=1;aspect=fixed;fillColor=#FAE5C7;strokeColor=#0F8B8D;fontColor=#143642;" vertex="1" parent="1">
          <mxGeometry x="220" y="320" width="80" height="80" as="geometry" />
        </mxCell>
        <mxCell id="YYU7tbsLJd_8XvhxsSBn-45" value="" style="shape=image;html=1;verticalAlign=top;verticalLabelPosition=bottom;labelBackgroundColor=#ffffff;imageAspect=0;aspect=fixed;image=https://cdn2.iconfinder.com/data/icons/boxicons-logos/24/bxl-spring-boot-128.png;rounded=0;labelBorderColor=none;sketch=0;fontFamily=Helvetica;fontColor=#143642;strokeColor=#000000;fillColor=#000000;" vertex="1" parent="1">
          <mxGeometry x="240" y="335" width="40" height="40" as="geometry" />
        </mxCell>
        <mxCell id="YYU7tbsLJd_8XvhxsSBn-46" value="" style="shape=image;html=1;verticalAlign=top;verticalLabelPosition=bottom;labelBackgroundColor=#ffffff;imageAspect=0;aspect=fixed;image=https://cdn1.iconfinder.com/data/icons/bootstrap-vol-5/16/type-h2-128.png;rounded=0;labelBorderColor=none;sketch=0;fontFamily=Helvetica;fontColor=#143642;strokeColor=#000000;fillColor=#000000;" vertex="1" parent="1">
          <mxGeometry x="840" y="204" width="35" height="35" as="geometry" />
        </mxCell>
        <mxCell id="YYU7tbsLJd_8XvhxsSBn-47" value="" style="html=1;verticalLabelPosition=bottom;align=center;labelBackgroundColor=#ffffff;verticalAlign=top;strokeWidth=2;strokeColor=#0080F0;shadow=0;dashed=0;shape=mxgraph.ios7.icons.data;rounded=0;labelBorderColor=none;sketch=0;fontFamily=Helvetica;fontColor=#143642;fillColor=#000000;" vertex="1" parent="1">
          <mxGeometry x="790" y="200" width="37" height="39.5" as="geometry" />
        </mxCell>
        <mxCell id="YYU7tbsLJd_8XvhxsSBn-53" value="Port:8080" style="text;align=center;verticalAlign=middle;resizable=0;points=[];autosize=1;fontStyle=0;labelBackgroundColor=none;labelBorderColor=none;" vertex="1" parent="1">
          <mxGeometry x="225" y="260" width="70" height="20" as="geometry" />
        </mxCell>
        <mxCell id="YYU7tbsLJd_8XvhxsSBn-54" value="Port:8080" style="text;align=center;verticalAlign=middle;resizable=0;points=[];autosize=1;fontStyle=0;labelBackgroundColor=none;labelBorderColor=none;" vertex="1" parent="1">
          <mxGeometry x="220" y="30" width="70" height="20" as="geometry" />
        </mxCell>
        <mxCell id="YYU7tbsLJd_8XvhxsSBn-55" value="Port:8099" style="text;align=center;verticalAlign=middle;resizable=0;points=[];autosize=1;fontStyle=0;labelBackgroundColor=none;labelBorderColor=none;" vertex="1" parent="1">
          <mxGeometry x="220" y="-13" width="70" height="20" as="geometry" />
        </mxCell>
        <mxCell id="YYU7tbsLJd_8XvhxsSBn-56" value="Port:8099" style="text;align=center;verticalAlign=middle;resizable=0;points=[];autosize=1;fontStyle=0;labelBackgroundColor=none;labelBorderColor=none;" vertex="1" parent="1">
          <mxGeometry x="390" y="270" width="70" height="20" as="geometry" />
        </mxCell>
        <mxCell id="YYU7tbsLJd_8XvhxsSBn-57" value="Port:8091" style="text;align=center;verticalAlign=middle;resizable=0;points=[];autosize=1;fontStyle=0;labelBackgroundColor=none;labelBorderColor=none;" vertex="1" parent="1">
          <mxGeometry x="601.88" y="252" width="70" height="20" as="geometry" />
        </mxCell>
        <mxCell id="YYU7tbsLJd_8XvhxsSBn-60" value="Messages Brokers" style="whiteSpace=wrap;html=1;aspect=fixed;fillColor=#FAE5C7;strokeColor=#0F8B8D;fontColor=#143642;" vertex="1" parent="1">
          <mxGeometry x="780" y="80" width="77" height="77" as="geometry" />
        </mxCell>
      </root>
    </mxGraphModel>
  </diagram>
</mxfile>
